<?xml version="1.0" encoding="utf-8"?>
<!-- Generator: Adobe Illustrator 25.4.1, SVG Export Plug-In . SVG Version: 6.00 Build 0)  -->
<svg version="1.1" xmlns="http://www.w3.org/2000/svg" xmlns:xlink="http://www.w3.org/1999/xlink" x="0px" y="0px"
	 viewBox="0 0 200 200" style="enable-background:new 0 0 200 200;" xml:space="preserve">
<style type="text/css">
	.st0{fill:url(#SVGID_1_);}
	.st1{fill:#231F20;stroke:#231F20;stroke-width:0.1283;stroke-miterlimit:10;}
	.st2{fill:#FB0707;stroke:#EF4136;stroke-width:0.2567;stroke-miterlimit:10;}
	.st3{fill:#FB0707;}
</style>
<g id="Layer_1">
</g>
<g id="Layer_2">
</g>
<g id="Black_logo">
	<g>
		<linearGradient id="SVGID_1_" gradientUnits="userSpaceOnUse" x1="42.3805" y1="4.123" x2="320.6439" y2="467.1443">
			<stop  offset="0" style="stop-color:#F2F2F2"/>
			<stop  offset="0.1147" style="stop-color:#EDEDED"/>
			<stop  offset="0.2423" style="stop-color:#E0E0E0"/>
			<stop  offset="0.376" style="stop-color:#CACACA"/>
			<stop  offset="0.5141" style="stop-color:#ABABAB"/>
			<stop  offset="0.6556" style="stop-color:#828282"/>
			<stop  offset="0.7998" style="stop-color:#515151"/>
			<stop  offset="0.9436" style="stop-color:#181818"/>
			<stop  offset="1" style="stop-color:#000000"/>
		</linearGradient>
		<path class="st0" d="M166.38,193.73H33.62c-15.1,0-27.35-12.24-27.35-27.35V33.62c0-15.1,12.24-27.35,27.35-27.35h132.76
			c15.1,0,27.35,12.24,27.35,27.35v132.76C193.73,181.48,181.48,193.73,166.38,193.73z"/>
		<path class="st1" d="M141.2,124.85c-2.85-1.18-5.7-2.35-8.55-3.54c-18.79-7.83-37.58-15.66-56.37-23.49
			c-5.19-2.17-10.39-4.33-15.58-6.5c-0.2-0.08-0.42-0.15-0.61-0.26c-0.36-0.22-0.55-0.07-0.76,0.24c-1.36,2.04-2.73,4.07-4.1,6.1
			c-6.67,9.91-13.35,19.83-20.03,29.74c-0.32,0.47-0.44,0.93-0.42,1.5c0.16,4.75,0.29,9.5,0.43,14.25c0.02,0.51,0.02,1.03,0.06,1.54
			c0.03,0.34-0.06,0.54-0.41,0.66c-0.57,0.2-1.13,0.46-1.69,0.69c-0.19-0.18-0.12-0.39-0.13-0.57c-0.07-1.62-0.14-3.23-0.18-4.85
			c-0.01-0.39-0.14-0.48-0.52-0.48c-2.01,0.02-4.02,0.02-6.03,0c-0.36,0-0.57,0.11-0.78,0.4c-1.18,1.68-2.39,3.35-3.58,5.03
			c-0.44,0.62-0.35,0.53-0.9,0.22c-0.34-0.19-0.67-0.38-1.06-0.6c0.18-0.26,0.32-0.48,0.47-0.7c4.1-5.77,8.2-11.54,12.3-17.31
			c4.11-5.79,7.97-11.75,11.95-17.63c4.12-6.08,8.21-12.19,12.31-18.28c0.19-0.28,0.38-0.57,0.57-0.87
			c-0.17-0.26-0.45-0.28-0.69-0.38c-5.62-2.35-11.25-4.69-16.87-7.04c-0.22-0.09-0.47-0.14-0.65-0.32c1.79-0.06,3.58-0.06,5.38,0
			c0.09,0.14,0.25,0.16,0.38,0.21c2.17,0.91,4.33,1.81,6.5,2.72c2.24,0.93,4.47,1.86,6.7,2.8c0.35,0.15,0.56,0.14,0.77-0.22
			c0.28-0.49,0.63-0.94,0.93-1.41c0.9-1.37,1.87-2.69,2.71-4.1c0.52-0.64,0.98-1.32,1.37-2.05c0.24-0.19,0.37-0.46,0.53-0.7
			c6.94-10.3,13.87-20.6,20.8-30.91c0.26-0.39,0.54-0.51,1.01-0.55c0.83-0.09,1.27,0.29,1.72,0.91
			c7.43,10.23,14.89,20.44,22.34,30.65c0.14,0.2,0.27,0.41,0.41,0.61c-0.87,0.12-1.73,0.13-2.6-0.02c-0.04-0.23-0.21-0.38-0.34-0.55
			c-6.94-9.51-13.88-19.03-20.82-28.54c-0.14-0.19-0.24-0.43-0.51-0.55c-0.15,0.22-0.31,0.44-0.46,0.66
			c-5.91,8.77-11.81,17.54-17.71,26.32c-0.59,0.87-1.22,1.71-1.73,2.64c-0.52,0.64-0.98,1.33-1.38,2.06
			c-0.11,0.13-0.23,0.26-0.32,0.4c-1.34,1.99-2.68,3.98-4.02,5.97c-0.08,0.12-0.2,0.22-0.17,0.39c0.16,0.17,0.38,0.21,0.58,0.3
			c23.06,9.61,46.12,19.22,69.18,28.83c2.46,1.03,7.57,3.08,7.57,3.08s-15.09-20.8-22.41-30.83c-1.93-2.65-3.85-5.31-5.78-7.96
			c0.85-0.06,1.71-0.06,2.56,0c0.11,0.16,0.21,0.33,0.32,0.49c8.73,11.97,17.46,23.94,26.19,35.9c0.68,0.93,1.31,1.89,2.06,2.76
			C141.25,122.74,141.26,123.8,141.2,124.85z M32.51,130.61c-0.8,0.86-4.8,6.59-4.95,7.09c1.58,0,3.14,0,4.71,0
			c0.53,0,0.54-0.01,0.53-0.58c-0.05-1.98-0.11-3.97-0.18-5.95C32.61,131,32.65,130.82,32.51,130.61z"/>
		<path class="st2" d="M65.42,82.36c0.39-0.73,0.86-1.41,1.38-2.06c0.22,0.01,0.44,0.02,0.66,0.02c9.79,0.01,19.59,0.02,29.38,0.04
			c3.26,0.01,6.51,0.03,9.77,0.03c0.58,0,1.17,0.08,1.75-0.06c0.87,0.15,1.73,0.14,2.6,0.02c1.4,0.02,2.79,0.06,4.19,0.06
			c13.51,0.02,27.01,0.04,40.52,0.06c7.62,0.01,15.25,0.02,22.87,0.04c1.02,0,0.88-0.07,0.89,0.92c0,0.27-0.01,0.54,0,0.81
			c0.01,0.26-0.12,0.35-0.36,0.34c-0.2-0.01-0.39,0-0.59,0c-11.47-0.02-22.94-0.04-34.42-0.05c-1.07,0-0.92-0.14-0.92,0.95
			c0.05,13.77,0.1,27.55,0.15,41.32c0,0.29,0.01,0.52,0.01,0.9c-0.61-0.23-1.49-0.2-2.06,0c-0.02-0.45-0.01-0.61-0.04-0.85
			c0.05-1.06,0.05-2.11-0.01-3.17c0.01-0.27,0.03-0.54,0.03-0.81c-0.05-12.5-0.1-25-0.15-37.5c0-0.91,0.11-0.83-0.81-0.84
			c-8.85-0.02-17.7-0.04-26.55-0.06c-0.37,0-0.74-0.05-1.1,0.05c-0.85-0.06-1.71-0.06-2.56,0c-1.51-0.12-3.03-0.06-4.55-0.07
			c-5.65-0.03-11.31-0.03-16.96-0.04c-7.47-0.01-14.93-0.02-22.4-0.03C65.91,82.4,65.66,82.38,65.42,82.36z"/>
		<path class="st1" d="M82.03,142.65c0.63-1.85,1.22-3.56,1.81-5.27c1.13-3.29,2.25-6.57,3.39-9.85c0.23-0.65,0.08-0.57,0.81-0.58
			c0.71-0.01,1.42-0.01,2.13,0c0.54,0,0.54,0.01,0.55,0.58c0,0.07,0,0.15,0,0.22c0,5.64,0,11.27,0,16.91c0,0.05,0,0.1,0,0.15
			c-0.01,0.63-0.01,0.63-0.65,0.64c-0.47,0-0.93-0.01-1.4,0c-0.22,0-0.32-0.09-0.32-0.3c0-0.2,0-0.39,0-0.59c0-4.41,0-8.82,0-13.23
			c0-0.27,0.05-0.54-0.06-0.82c-0.24,0.07-0.23,0.29-0.28,0.45c-1.58,4.53-3.15,9.06-4.72,13.59c-0.02,0.07-0.04,0.14-0.06,0.21
			c-0.3,0.76-0.11,0.69-0.97,0.68c-0.48-0.01-1.05,0.19-1.43-0.09c-0.35-0.26-0.36-0.83-0.51-1.27c-1.49-4.38-2.97-8.76-4.46-13.13
			c-0.08-0.24-0.11-0.51-0.41-0.82c0,0.37,0,0.62,0,0.87c0,4.51,0,9.02,0,13.53c0,0.17-0.01,0.34,0,0.51
			c0.03,0.33-0.13,0.42-0.44,0.41c-0.51-0.01-1.03-0.02-1.54,0c-0.29,0.01-0.4-0.12-0.38-0.39c0.01-0.15,0-0.29,0-0.44
			c0-5.61,0-11.22,0-16.83c0-0.15,0.01-0.29,0-0.44c-0.02-0.27,0.06-0.4,0.37-0.39c0.98,0.02,1.96,0.02,2.94,0
			c0.37-0.01,0.44,0.21,0.53,0.47c0.49,1.46,0.98,2.92,1.46,4.39c1.15,3.46,2.29,6.92,3.44,10.38
			C81.87,142.3,81.92,142.41,82.03,142.65z"/>
		<path class="st1" d="M136.32,145.44c-0.7,0-1.41-0.01-2.12,0.01c-0.31,0.01-0.42-0.19-0.56-0.4c-0.75-1.12-1.5-2.24-2.25-3.36
			c-2.22-3.32-4.43-6.64-6.65-9.96c-0.13-0.19-0.22-0.42-0.55-0.61c0,4.82,0,9.55,0,14.32c-0.72,0-1.36,0-2,0
			c-0.24,0-0.37-0.09-0.36-0.34c0.01-0.15,0-0.29,0-0.44c0-5.64,0-11.27,0-16.91c0-0.92-0.1-0.81,0.84-0.8
			c0.56,0,1.21-0.19,1.66,0.08c0.42,0.25,0.64,0.84,0.94,1.29c2.74,4.09,5.47,8.18,8.21,12.27c0.13,0.2,0.27,0.39,0.45,0.66
			c0.15-0.3,0.1-0.57,0.1-0.81c0-4.19,0-8.38,0-12.57c0-0.17,0.01-0.34,0-0.51c-0.03-0.33,0.13-0.42,0.43-0.41
			c0.51,0.02,1.03,0.02,1.54,0c0.29-0.01,0.4,0.1,0.37,0.38c-0.01,0.15,0,0.29,0,0.44c0,5.64,0,11.27,0,16.91
			C136.4,144.91,136.44,145.16,136.32,145.44z"/>
		<path class="st1" d="M70.04,135.83c-0.01,2.04-0.3,3.66-1.04,5.19c-0.99,2.07-2.58,3.47-4.75,4.21c-1.89,0.64-3.79,0.7-5.7,0.13
			c-2.36-0.7-4.11-2.16-5.14-4.39c-1.53-3.32-1.45-6.68,0.16-9.92c1.36-2.73,3.74-4.12,6.76-4.39c1.53-0.13,3.03,0.04,4.46,0.66
			c2.7,1.17,4.25,3.28,4.93,6.09C69.94,134.32,70.06,135.25,70.04,135.83z M67.52,136.19c-0.02-0.34-0.01-0.69-0.06-1.03
			c-0.06-0.51-0.13-1.02-0.25-1.52c-0.63-2.69-2.45-4.43-5.08-4.84c-2.76-0.43-5.84,1.05-6.73,3.99c-0.63,2.1-0.73,4.24-0.14,6.37
			c0.64,2.31,2.7,4.43,5.79,4.47c2.8,0.04,5.08-1.52,5.98-4.2C67.39,138.39,67.51,137.3,67.52,136.19z"/>
		<path class="st1" d="M118.74,136.15c0.01,1.52-0.21,2.89-0.73,4.21c-1.15,2.94-3.33,4.64-6.39,5.24
			c-1.49,0.29-2.97,0.21-4.43-0.24c-2.21-0.69-3.91-2.04-4.93-4.11c-1.66-3.36-1.62-6.78,0-10.11c1.34-2.75,3.7-4.16,6.72-4.45
			c1.55-0.15,3.08,0.02,4.53,0.66c2.93,1.28,4.46,3.62,5.05,6.67C118.71,134.74,118.76,135.5,118.74,136.15z M116.22,136.2
			c0.03-1.09-0.12-2.15-0.46-3.18c-0.91-2.82-3.33-4.51-6.28-4.27c-2.49,0.2-4.4,1.39-5.27,3.82c-0.79,2.19-0.85,4.47-0.19,6.72
			c0.77,2.63,3.05,4.31,5.8,4.35c2.8,0.04,5.09-1.59,5.94-4.25C116.1,138.35,116.24,137.29,116.22,136.2z"/>
		<path class="st1" d="M172.66,145.74c-1.48-0.07-2.93-0.26-4.25-1c-1.84-1.04-2.86-2.62-3.08-4.72c-0.05-0.52-0.04-0.52,0.47-0.57
			c0.44-0.04,0.88-0.07,1.32-0.13c0.32-0.04,0.5,0.02,0.55,0.38c0.31,2.1,1.66,3.18,3.62,3.64c1.42,0.33,2.82,0.29,4.19-0.21
			c0.73-0.27,1.35-0.68,1.76-1.37c0.71-1.2,0.4-2.66-0.76-3.43c-0.55-0.37-1.17-0.61-1.82-0.78c-1.32-0.35-2.65-0.68-3.98-1.04
			c-0.8-0.22-1.59-0.48-2.32-0.9c-1.55-0.89-2.44-2.21-2.38-4.02c0.06-1.83,0.96-3.21,2.59-4.07c1.64-0.87,3.41-1,5.22-0.81
			c0.98,0.11,1.92,0.35,2.8,0.82c1.69,0.91,2.57,2.35,2.81,4.22c0.04,0.28-0.05,0.42-0.33,0.43c-0.56,0.03-1.12,0.07-1.69,0.12
			c-0.21,0.02-0.32-0.06-0.35-0.27c-0.02-0.12-0.04-0.24-0.07-0.36c-0.33-1.42-1.18-2.34-2.61-2.68c-1.26-0.3-2.53-0.27-3.78,0.03
			c-0.74,0.18-1.36,0.56-1.8,1.19c-0.81,1.16-0.44,2.68,0.82,3.31c0.9,0.45,1.89,0.68,2.86,0.91c1.12,0.27,2.24,0.52,3.34,0.87
			c0.54,0.17,1.06,0.38,1.56,0.64c3.34,1.77,3.26,5.72,1.13,7.84c-1.03,1.03-2.3,1.56-3.7,1.81
			C174.08,145.72,173.37,145.78,172.66,145.74z"/>
		<path class="st1" d="M146.8,136.01c-0.02-1.46,0.2-2.88,0.75-4.24c1.11-2.74,3.17-4.35,6.03-4.95c1.61-0.33,3.22-0.28,4.78,0.27
			c2.19,0.78,3.55,2.36,4.31,4.51c0.09,0.27,0.1,0.45-0.27,0.51c-0.55,0.1-1.1,0.25-1.64,0.39c-0.25,0.06-0.41,0.02-0.49-0.26
			c-0.07-0.26-0.19-0.5-0.3-0.75c-0.72-1.53-1.89-2.47-3.58-2.71c-1.19-0.17-2.35-0.06-3.46,0.4c-1.51,0.63-2.51,1.76-3.02,3.31
			c-0.81,2.45-0.78,4.91,0.01,7.36c1.23,3.83,5.49,4.42,7.87,3.22c1.4-0.7,2.21-1.89,2.68-3.34c0.05-0.14,0.09-0.28,0.11-0.43
			c0.04-0.28,0.18-0.37,0.45-0.3c0.59,0.16,1.18,0.31,1.78,0.45c0.27,0.06,0.27,0.21,0.21,0.43c-0.92,3.39-3.31,5.35-6.25,5.74
			c-1.35,0.18-2.7,0.11-4.01-0.22c-2.5-0.63-4.11-2.27-5.06-4.61C147.07,139.28,146.77,137.68,146.8,136.01z"/>
		<path class="st1" d="M36.43,126.95c0.3,0,0.52,0,0.74,0c4.38,0,8.77,0,13.15,0c0.15,0,0.29,0,0.44,0c0.22-0.01,0.3,0.1,0.3,0.31
			c-0.01,0.54,0,1.08,0,1.62c0,0.18-0.09,0.27-0.27,0.27c-0.17,0-0.34,0-0.51,0c-1.57,0-3.14,0-4.7,0c-0.69,0-0.62-0.03-0.62,0.64
			c0,4.95,0,9.89,0,14.84c0,0.96,0.06,0.8-0.83,0.81c-0.42,0.01-0.83-0.01-1.25,0c-0.24,0.01-0.37-0.08-0.36-0.34
			c0.01-0.17,0-0.34,0-0.51c0-4.82,0-9.65,0-14.47c0-0.15,0-0.29,0-0.44c-0.01-0.53-0.01-0.53-0.59-0.53c-1.57,0-3.14,0-4.7,0
			c-0.81,0-0.79,0.16-0.79-0.78C36.43,127.93,36.43,127.49,36.43,126.95z"/>
		<path class="st2" d="M64.16,80.35c-0.39,0.73-0.85,1.41-1.37,2.05c-0.27-0.01-0.54-0.02-0.81-0.02
			c-4.63-0.01-9.26-0.01-13.89-0.01c-1.1,0-2.2-0.06-3.31,0.02c-1.79-0.06-3.58-0.06-5.38,0c-0.21,0-0.31-0.13-0.31-0.33
			c0-0.49,0-0.98,0-1.47c0-0.21,0.09-0.32,0.3-0.31c0.15,0,0.29,0,0.44,0c7.96,0.01,15.92,0.02,23.87,0.03
			C63.87,80.32,64.02,80.34,64.16,80.35z"/>
		<path class="st1" d="M97.52,130.43c-0.01,0.39-0.01,0.55-0.01,0.78c0,4.48,0,8.96,0,13.44c0,0.86,0.09,0.79-0.78,0.79
			c-0.42,0-0.83-0.01-1.25,0c-0.3,0.01-0.47-0.08-0.43-0.41c0.01-0.07,0-0.15,0-0.22c0-4.58,0-9.16,0-13.73c0-0.14,0-0.49-0.01-0.65
			C95.67,130.9,96.88,130.82,97.52,130.43z"/>
		<path class="st2" d="M141.25,130.54c0.44,0.28,1.37,0.37,2.05-0.05c0,0.23,0.01,0.43,0.01,0.62c0.03,4.46,0.05,8.91,0.08,13.37
			c0,0.12,0,0.25,0,0.37c0.01,0.25-0.12,0.35-0.36,0.34c-0.42-0.01-0.83-0.02-1.25,0c-0.34,0.02-0.49-0.08-0.47-0.45
			c0.02-0.56,0-1.13,0-1.69c-0.02-3.94-0.04-7.88-0.06-11.83C141.25,131.06,141.24,130.72,141.25,130.54z"/>
		<path class="st1" d="M96.13,126.79c0.71,0,1.27,0.59,1.26,1.33c0,0.74-0.57,1.33-1.27,1.33c-0.7,0-1.26-0.59-1.26-1.34
			C94.87,127.36,95.42,126.79,96.13,126.79z"/>
		<path class="st3" d="M142.22,126.79c0.7,0.01,1.23,0.62,1.2,1.37c-0.03,0.73-0.56,1.28-1.23,1.28c-0.69,0-1.26-0.61-1.26-1.34
			C140.95,127.37,141.52,126.78,142.22,126.79z"/>
	</g>
</g>
</svg>
